<svg xmlns="http://www.w3.org/2000/svg" width="55" height="55" viewBox="0 0 24 24"><path fill="#FF713E" d="M13.527.099C6.955-.744.942 3.9.099 10.473c-.843 6.572 3.8 12.584 10.373 13.428c6.573.843 12.587-3.801 13.428-10.374C24.744 6.955 20.101.943 13.527.099m2.471 7.485a.86.86 0 0 0-.593.25l-4.453 4.453l-.307-.307l-.643-.643c4.389-4.376 5.18-4.418 5.996-3.753m-4.863 4.861l4.44-4.44a.62.62 0 1 1 .847.903l-4.699 4.125zm.33.694l-1.1.238a.06.06 0 0 1-.067-.032a.06.06 0 0 1 .01-.073l.645-.645z"/></svg>
