<svg xmlns="http://www.w3.org/2000/svg" width="45" height="45" viewBox="0 0 256 256"><rect width="256" height="256" fill="#f0db4f" rx="60"/><path fill="#323330" d="m67.312 213.932l19.59-11.856c3.78 6.701 7.218 12.371 15.465 12.371c7.905 0 12.889-3.092 12.889-15.12v-81.798h24.058v82.138c0 24.917-14.606 36.259-35.916 36.259c-19.245 0-30.416-9.967-36.087-21.996m85.07-2.576l19.588-11.341c5.157 8.421 11.859 14.607 23.715 14.607c9.969 0 16.325-4.984 16.325-11.858c0-8.248-6.53-11.1-12.682-15.16c-4.125-2.809-6.679-4.7-6.679-9.125c0-3.047 2.3-5.546 5.916-5.546c2.525 0 4.351 1.125 5.666 3.3l15.187-9.875c-3.172-5.5-9.125-8.875-16.875-8.875c-12.75 0-21.375 8.625-21.375 20.625c0 9.75 5.625 14.625 14.25 19.125c5.625 2.875 8.25 4.875 8.25 8.625c0 3.375-2.625 5.625-6.75 5.625c-4.125 0-6.75-2.25-8.625-5.25l-15.75 9.375z"/></svg>
