<svg xmlns="http://www.w3.org/2000/svg" width="50" height="50" viewBox="0 0 256 256"><rect width="256" height="256" fill="#f4f2ed" rx="60"/><path fill="#0f0f0f" d="M228 182.937a12.73 12.73 0 0 1-15.791-6.005c-9.063-13.567-19.071-26.522-28.69-39.755l-4.171-5.56c-11.454 15.346-22.908 30.08-33.361 45.371a12.23 12.23 0 0 1-15.012 5.894l42.98-57.659l-39.978-52.1a13.29 13.29 0 0 1 15.847 5.56c9.285 13.568 19.572 26.523 29.802 40.257c10.287-13.623 20.462-26.634 29.97-40.09a11.95 11.95 0 0 1 15.012-5.894l-42.98 57.659l39.978 52.1a13.29 13.29 0 0 1-15.847 5.56z"/></svg>
