<svg xmlns="http://www.w3.org/2000/svg" width="55" height="55" viewBox="0 0 24 24"><path fill="green" d="M12 23.956c-.342 0-.66-.089-.957-.243l-3.029-1.738c-.455-.242-.227-.33-.09-.374c.614-.198.728-.242 1.366-.595c.068-.044.16-.022.228.022l2.323 1.343c.09.044.205.044.273 0l9.087-5.084c.09-.044.136-.132.136-.242V6.899c0-.11-.045-.198-.136-.242l-9.087-5.061c-.091-.044-.205-.044-.273 0L2.754 6.657c-.091.044-.137.154-.137.242v10.146c0 .088.046.198.137.242l2.482 1.387c1.344.66 2.186-.11 2.186-.88V7.2z"/></svg>
